# xmcd CD database file
#
# Track frame offsets:
#	150
#	11893
#	29252
#	40642
#	53959
#	63313
#	74150
#	86396
#	97991
#	108524
#	118608
#	131447
#	142870
#	156110
#
# Disc length: 2295 seconds
#
# Revision: 0
# Processed by: cddbd v1.5.2PL0 Copyright (c) Steve Scherf et al.
# Submitted via: CDex 1.70beta2
#
DISCID=b808f50e
DTITLE=Joscho Stephan -  Salon 18
DYEAR=2019
DGENRE=Jazz
TTITLE0=Salon 18 (Joscho Stephan)
TTITLE1=If i had you (Ted Shapiro)
TTITLE2=Charleston (James P. Johnson)
TTITLE3=Confessin (Christopher M. Smith)
TTITLE4=After you 've gone (Turner Layton)
TTITLE5=Fly me to the moon (Bart Howard)
TTITLE6=Love me tender (Elvis Presley)
TTITLE7=Darktown Strutters Ball (Shelton Brooks)
TTITLE8=In the summertime (Ray Dorset)
TTITLE9=All of me (Pat Ballard)
TTITLE10=Mr. Sandman (Henri Betti)
TTITLE11=Some broken hearts never mend (Wayland Holyfield)
TTITLE12=L-O-V-E (Bert Kaempfert)
TTITLE13=Createur Immobilier (Joscho Stephan)
EXTD=YEAR: 2019
EXTT0=
EXTT1=
EXTT2=
EXTT3=
EXTT4=
EXTT5=
EXTT6=
EXTT7=
EXTT8=
EXTT9=
EXTT10=
EXTT11=
EXTT12=
EXTT13=
PLAYORDER=
